<svg width="25" height="28" viewBox="0 0 25 28" fill="none" xmlns="http://www.w3.org/2000/svg">
<g id="Group 215">
<path id="Rectangle 61" d="M0 10.8453C0 8.72133 1.7218 6.99953 3.84575 6.99953H19.1542C21.2782 6.99953 23 8.72133 23 10.8453C23 14.2739 22.679 17.695 22.0413 21.0638L22.0016 21.2736C21.5925 23.4349 19.7039 24.9995 17.5042 24.9995H11.5H5.49576C3.29612 24.9995 1.40752 23.4349 0.998393 21.2736L0.958675 21.0638C0.320958 17.695 0 14.2739 0 10.8453Z" fill="white"/>
<circle id="Ellipse 8" cx="20" cy="22.9995" r="5" fill="#2A1A5E"/>
<path id="Vector 18" d="M17 22.9995H23M20 19.9995V25.9995" stroke="white" stroke-width="2"/>
<path id="Vector 17" d="M7 6.99953V6.49953C7 4.01425 9.01472 1.99953 11.5 1.99953V1.99953C13.9853 1.99953 16 4.01425 16 6.49953V6.99953" stroke="white" stroke-width="3"/>
</g>
</svg>
