<svg width="30" height="30" viewBox="0 0 30 30" fill="none" xmlns="http://www.w3.org/2000/svg">
<g id="filter_alt_FILL1_wght200_GRAD0_opsz48 1">
<path id="Vector" d="M14.7112 23.75C14.4372 23.75 14.2084 23.6583 14.0249 23.4748C13.8414 23.2913 13.7497 23.0625 13.7497 22.7885V15.8173L6.90596 7.15144C6.74248 6.97356 6.72084 6.77885 6.84105 6.56731C6.96124 6.35577 7.12791 6.25 7.34105 6.25H22.6584C22.8715 6.25 23.0382 6.35577 23.1584 6.56731C23.2786 6.77885 23.2569 6.97356 23.0935 7.15144L16.2497 15.8173V22.7885C16.2497 23.0625 16.158 23.2913 15.9745 23.4748C15.791 23.6583 15.5622 23.75 15.2882 23.75H14.7112Z" fill="#2A1A5E"/>
</g>
</svg>
