<svg width="78" height="46" viewBox="0 0 78 46" fill="none" xmlns="http://www.w3.org/2000/svg">
<g id="Group 127">
<path id="Vector 24" d="M9.5 16.0305C11.8333 11.3638 19.9 1.83051 33.5 1.03051C47.1 0.230506 49.5 15.3638 49 23.0305C49.5 30.3638 47.1 44.9305 33.5 44.5305C21.9 44.5305 12.6667 33.5305 9.5 28.0305" stroke="#B3BCF3"/>
<path id="Vector" d="M50.1247 30.971C53.3471 38.2468 64.1671 38.055 64.1671 38.055C64.1671 38.055 62.6577 37.4568 61.6016 35.1448L56.0766 32.9101L60.9976 33.4026C60.8868 32.9516 60.7962 32.448 60.7378 31.9107L54.3826 29.3311L60.4401 29.9355C60.3354 29.4941 60.2116 29.0648 60.0713 28.6726L53.4465 25.9823L58.8795 26.526C56.7056 23.7298 53.0946 23.0533 50.6115 22.9615C53.0858 22.6583 56.6313 21.7073 58.5683 18.752L53.1943 19.7198L59.5767 16.5017C59.6934 16.0945 59.7825 15.6646 59.844 15.212L53.8533 16.301L59.9755 13.2201C59.9924 12.6755 60.0394 12.1787 60.1104 11.7201L55.2394 12.5979L60.5562 9.93083C61.4145 7.54806 62.8693 6.83218 62.8693 6.83218C62.8693 6.83218 52.0717 7.50387 49.4565 15.0113C48.9707 16.3986 48.6402 17.7148 48.4046 18.8644C47.8373 21.6246 47.9618 24.5099 48.7481 27.2188C49.0924 28.3369 49.5295 29.6236 50.1247 30.971Z" fill="#B3BCF3"/>
<path id="Subtract" fill-rule="evenodd" clip-rule="evenodd" d="M13 32C10.8333 29.6667 6.8 19.8 12 13C8.8333 14.5 1.2 19.6305 0 22.0305C1 24.5305 10.0001 30.5 13 32ZM5.5 23.0305C6.32843 23.0305 7 22.3589 7 21.5305C7 20.7021 6.32843 20.0305 5.5 20.0305C4.67157 20.0305 4 20.7021 4 21.5305C4 22.3589 4.67157 23.0305 5.5 23.0305Z" fill="#B3BCF3"/>
</g>
</svg>
