<svg width="33" height="20" viewBox="0 0 33 20" fill="none" xmlns="http://www.w3.org/2000/svg">
<path d="M3.97076 7.28239C4.94604 5.33184 8.31772 1.34713 14.0022 1.01275C19.6867 0.67837 20.6898 7.00374 20.4808 10.2082C20.6898 13.2734 19.6867 19.3619 14.0022 19.1947C9.15367 19.1947 5.29436 14.597 3.97076 12.2981" stroke="#B3BCF3"/>
<path d="M20.9509 13.5271C22.2978 16.5682 26.8203 16.488 26.8203 16.488C26.8203 16.488 26.1894 16.238 25.748 15.2717L23.4387 14.3376L25.4955 14.5434C25.4492 14.3549 25.4114 14.1444 25.3869 13.9199L22.7306 12.8417L25.2625 13.0943C25.2188 12.9098 25.167 12.7303 25.1083 12.5664L22.3394 11.4419L24.6102 11.6692C23.7016 10.5004 22.1923 10.2177 21.1544 10.1793C22.1886 10.0526 23.6705 9.65508 24.4802 8.41986L22.2339 8.82434L24.9016 7.47928C24.9504 7.30907 24.9876 7.12938 25.0133 6.94022L22.5094 7.39539L25.0683 6.10764C25.0754 5.88 25.095 5.67234 25.1247 5.48067L23.0888 5.8476L25.311 4.7328C25.6698 3.73686 26.2779 3.43764 26.2779 3.43764C26.2779 3.43764 21.7647 3.71839 20.6716 6.85633C20.4686 7.43616 20.3304 7.9863 20.232 8.4668C19.9949 9.62051 20.0469 10.8265 20.3755 11.9587C20.5194 12.4261 20.7022 12.9639 20.9509 13.5271Z" fill="#B3BCF3"/>
<path fill-rule="evenodd" clip-rule="evenodd" d="M5.43369 13.9573C4.52807 12.982 2.84224 8.85801 5.01571 6.01578C3.69211 6.64274 0.501571 8.78717 0 9.79031C0.417976 10.8353 4.1798 13.3304 5.43369 13.9573ZM2.29883 10.2084C2.64509 10.2084 2.92579 9.92768 2.92579 9.58142C2.92579 9.23516 2.64509 8.95446 2.29883 8.95446C1.95257 8.95446 1.67187 9.23516 1.67187 9.58142C1.67187 9.92768 1.95257 10.2084 2.29883 10.2084Z" fill="#B3BCF3"/>
</svg>
