<svg width="32" height="32" viewBox="0 0 32 32" fill="none" xmlns="http://www.w3.org/2000/svg">
<g id="Group 148">
<path id="Ellipse 9" d="M5.6997 9.8718C4.70588 11.5931 4.18507 13.5341 4.1727 15.4998M15.1988 26.9645C12.5629 26.8782 10.0385 25.8807 8.0557 24.1418C6.07289 22.4029 4.75435 20.0303 4.32475 17.4283C4.21893 16.7873 4.16866 16.1422 4.1727 15.4998M15.1988 26.9645C17.8346 27.0508 20.4189 26.2205 22.5111 24.615C24.6034 23.0096 26.0743 20.7283 26.6732 18.1599C26.8779 17.2821 26.9764 16.3892 26.9707 15.4998M15.1988 26.9645L15.1988 24.9998M12.6214 4.56061C13.4687 4.33357 14.3335 4.20659 15.1988 4.17828M26.9707 15.4998C26.96 13.7869 26.5631 12.0865 25.7954 10.5297C24.629 8.16438 22.6785 6.2767 20.2763 5.18828C18.6731 4.46188 16.9349 4.12147 15.1988 4.17828M26.9707 15.4998L25 15.4998M4.1727 15.4998L6 15.4998M15.1988 4.17828L15.1988 5.99976" stroke="white" stroke-width="2" stroke-linecap="round"/>
<path id="Ellipse 10" d="M12.0086 13.9761L14.7839 16.8575L19.8251 12.0001" stroke="white" stroke-width="2" stroke-linecap="round"/>
</g>
</svg>
