<svg width="25" height="25" viewBox="0 0 25 25" fill="none" xmlns="http://www.w3.org/2000/svg">
<path fill-rule="evenodd" clip-rule="evenodd" d="M10.4609 21.8239L10.5111 21.8734L10.515 21.8773C11.4343 22.7799 12.3256 23.3986 13.3337 23.3867C14.3373 23.3749 15.225 22.7401 16.1437 21.8235C17.4028 20.5734 19.032 18.8871 20.2091 16.8866C21.3906 14.8786 22.153 12.4915 21.5794 9.87154C19.641 1.01703 6.98236 1.00665 5.03385 9.86213C4.47642 12.4079 5.18066 14.7366 6.30373 16.7101C7.42257 18.6764 8.98809 20.3458 10.2436 21.6066C10.3168 21.6801 10.389 21.7522 10.46 21.823L10.4609 21.8239ZM13.3066 7.91509C11.6636 7.91509 10.3315 9.27992 10.3315 10.9635C10.3315 12.647 11.6636 14.0119 13.3066 14.0119C14.9497 14.0119 16.2817 12.647 16.2817 10.9635C16.2817 9.27992 14.9497 7.91509 13.3066 7.91509Z" fill="#2A1A5E"/>
</svg>
