<svg width="17" height="32" viewBox="0 0 17 32" fill="none" xmlns="http://www.w3.org/2000/svg">
<path id="Vector" d="M2.61401 24.1468C5.83637 31.4226 16.6563 31.2308 16.6563 31.2308C16.6563 31.2308 15.147 30.6327 14.0909 28.3207L8.56588 26.086L13.4868 26.5784C13.3761 26.1275 13.2855 25.6238 13.227 25.0866L6.87183 22.5069L12.9294 23.1113C12.8247 22.67 12.7009 22.2406 12.5605 21.8484L5.93577 19.1581L11.3688 19.7019C9.19483 16.9056 5.58388 16.2291 3.10074 16.1374C5.57505 15.8342 9.12059 14.8831 11.0576 11.9279L5.68355 12.8956L12.0659 9.67757C12.1826 9.27034 12.2717 8.84044 12.3332 8.38786L6.34257 9.47686L12.4648 6.39594C12.4817 5.85133 12.5286 5.35451 12.5997 4.89593L7.72871 5.77379L13.0454 3.10667C13.9037 0.723901 15.3586 0.00802426 15.3586 0.00802426C15.3586 0.00802426 4.56092 0.679713 1.94571 8.18718C1.45999 9.57439 1.12943 10.8906 0.893859 12.0402C0.32657 14.8004 0.45105 17.6857 1.23734 20.3946C1.58166 21.5128 2.01878 22.7995 2.61401 24.1468Z" fill="#FF671D"/>
</svg>
