<svg width="49" height="49" viewBox="0 0 49 49" fill="none" xmlns="http://www.w3.org/2000/svg">
<circle cx="24.5" cy="24.5" r="24.5" fill="#FF671D"/>
<path d="M16.167 26.5833C16.167 24.7604 16.601 23.1372 17.4691 21.7135C18.3371 20.2899 19.292 19.092 20.3337 18.1198C21.3753 17.1476 22.3302 16.4054 23.1982 15.8932L24.5003 15.125V18.5625C24.5003 19.2049 24.7173 19.7127 25.1514 20.0859C25.5854 20.4592 26.0715 20.6458 26.6097 20.6458C26.9048 20.6458 27.187 20.5851 27.4561 20.4635C27.7252 20.342 27.9725 20.1424 28.1982 19.8646L28.667 19.2917C29.917 20.0208 30.9239 21.0321 31.6878 22.3255C32.4517 23.6189 32.8337 25.0382 32.8337 26.5833C32.8337 28.2326 32.4083 29.7214 31.5576 31.0495C30.7069 32.3776 29.5871 33.3802 28.1982 34.0573C28.5975 33.6059 28.9057 33.1024 29.1227 32.5469C29.3397 31.9913 29.4482 31.4097 29.4482 30.8021C29.4482 30.1424 29.3267 29.5217 29.0837 28.9401C28.8406 28.3585 28.4847 27.8333 28.016 27.3646L24.5003 23.9271L21.0107 27.3646C20.5246 27.8333 20.16 28.3585 19.917 28.9401C19.6739 29.5217 19.5524 30.1424 19.5524 30.8021C19.5524 31.4097 19.6609 31.9913 19.8779 32.5469C20.0949 33.1024 20.4031 33.6059 20.8024 34.0573C19.4135 33.3802 18.2937 32.3776 17.443 31.0495C16.5923 29.7214 16.167 28.2326 16.167 26.5833ZM24.5003 26.1146L26.8962 28.4583C27.2087 28.7708 27.4517 29.1267 27.6253 29.526C27.7989 29.9253 27.8857 30.3507 27.8857 30.8021C27.8857 31.7222 27.5559 32.5078 26.8962 33.1589C26.2364 33.8099 25.4378 34.1354 24.5003 34.1354C23.5628 34.1354 22.7642 33.8099 22.1045 33.1589C21.4448 32.5078 21.1149 31.7222 21.1149 30.8021C21.1149 30.3507 21.1974 29.9253 21.3623 29.526C21.5272 29.1267 21.7746 28.7708 22.1045 28.4583L24.5003 26.1146Z" fill="white"/>
</svg>
