<svg width="32" height="32" viewBox="0 0 32 32" fill="none" xmlns="http://www.w3.org/2000/svg">
<g id="Frame 22">
<path id="Ellipse 9" d="M5.69958 9.87229C4.70576 11.5936 4.18494 13.5345 4.17258 15.5002M15.1986 26.965C12.5628 26.8787 10.0384 25.8812 8.05557 24.1423C6.07277 22.4034 4.75423 20.0308 4.32463 17.4288C4.21881 16.7878 4.16853 16.1427 4.17258 15.5002M15.1986 26.965C17.8345 27.0513 20.4187 26.221 22.511 24.6155C24.6033 23.0101 26.0742 20.7288 26.6731 18.1604C26.8777 17.2825 26.9762 16.3897 26.9706 15.5002M15.1986 26.965L15.1986 25.0002M12.6213 4.56109C13.4686 4.33406 14.3334 4.20708 15.1986 4.17877M26.9706 15.5002C26.9598 13.7874 26.563 12.087 25.7953 10.5302C24.6288 8.16487 22.6783 6.27719 20.2761 5.18877C18.673 4.46237 16.9348 4.12196 15.1986 4.17877M26.9706 15.5002L24.9999 15.5002M4.17258 15.5002L5.99988 15.5002M15.1986 4.17877L15.1986 6.00024" stroke="#2A1A5E" stroke-width="2" stroke-linecap="round"/>
<path id="Ellipse 10" d="M12.0085 13.9761L14.7838 16.8575L19.825 12.0001" stroke="#2A1A5E" stroke-width="2" stroke-linecap="round"/>
</g>
</svg>
